<svg width="15" height="11" viewBox="0 0 15 11" fill="none" xmlns="http://www.w3.org/2000/svg">
<path d="M4.25067 0.255749C4.62984 0.248217 5.00848 0.289808 5.37831 0.379615C5.6897 0.45235 5.98534 0.587698 6.24952 0.778464C6.4935 0.968159 6.68655 1.22319 6.80928 1.51794C6.95034 1.8804 7.01839 2.2706 7.009 2.66308C7.02502 3.09404 6.92214 3.52052 6.71319 3.88936C6.49337 4.23772 6.18953 4.51593 5.83388 4.69449C6.31652 4.8337 6.73689 5.15257 7.01942 5.59375C7.29063 6.06122 7.42695 6.60389 7.41131 7.15385C7.42026 7.59232 7.33552 8.0272 7.16355 8.42533C7.0046 8.77264 6.77186 9.07531 6.48396 9.30911C6.18755 9.54035 5.854 9.71143 5.49988 9.81387C5.13264 9.92256 4.75326 9.97715 4.37223 9.97613H0.188721V0.255749H4.25067ZM4.00928 4.18726C4.3072 4.20039 4.60047 4.10497 4.84112 3.91661C4.95637 3.80684 5.04602 3.66975 5.10291 3.51629C5.1598 3.36284 5.18235 3.19727 5.16876 3.03282C5.17647 2.84076 5.14073 2.64954 5.06456 2.47543C4.99995 2.3368 4.89949 2.22093 4.77513 2.14161C4.64916 2.05429 4.50764 1.99588 4.3595 1.97005C4.19876 1.93674 4.0352 1.92159 3.87151 1.92484H2.08395V4.19593H4.00928V4.18726ZM4.11348 8.32562C4.29365 8.32823 4.47345 8.30743 4.64893 8.26368C4.8093 8.22579 4.96139 8.15536 5.09698 8.05621C5.22981 7.95711 5.33712 7.82376 5.40899 7.66851C5.49232 7.47054 5.53061 7.25427 5.52071 7.03741C5.53878 6.83979 5.51432 6.64037 5.4492 6.45444C5.38408 6.2685 5.28003 6.10099 5.14503 5.96473C4.85889 5.73925 4.50823 5.62756 4.15342 5.64887H2.08395V8.32562H4.11348Z" fill="white"/>
<path d="M10.1106 8.28974C10.2593 8.43725 10.4346 8.55087 10.6256 8.62369C10.8167 8.69652 11.0196 8.72702 11.222 8.71336C11.5429 8.72203 11.8576 8.61758 12.1175 8.41608C12.329 8.26896 12.4892 8.05125 12.5731 7.79675H14.0845C13.9235 8.52126 13.5302 9.16248 12.9731 9.60891C12.4386 9.98845 11.807 10.1807 11.1659 10.1589C10.7083 10.1653 10.2541 10.0733 9.8304 9.88823C9.44712 9.71721 9.10337 9.45871 8.82317 9.13079C8.54402 8.78717 8.32957 8.38908 8.19162 7.9584C8.03677 7.47699 7.96097 6.97054 7.96759 6.46148C7.96477 5.96095 8.04311 5.46369 8.19914 4.99181C8.40876 4.32796 8.80955 3.75221 9.344 3.3472C9.87845 2.94219 10.5191 2.72873 11.174 2.73745C11.6575 2.72663 12.1356 2.8477 12.5633 3.08922C12.9499 3.31603 13.2833 3.63365 13.5387 4.01822C13.7998 4.42175 13.987 4.87465 14.0903 5.35288C14.2036 5.8664 14.244 6.39525 14.2102 6.92164H9.70826C9.67178 7.4162 9.816 7.90662 10.1106 8.28974ZM12.0857 4.59296C11.9597 4.45814 11.8082 4.35378 11.6413 4.2869C11.4745 4.22002 11.2962 4.19218 11.1184 4.20526C10.8826 4.19563 10.6484 4.25154 10.4388 4.36752C10.2726 4.46541 10.1259 4.59711 10.007 4.75522C9.90154 4.90346 9.82301 5.07152 9.77541 5.25069C9.73252 5.40012 9.70572 5.5543 9.69553 5.71023H12.484C12.4597 5.30373 12.3213 4.91454 12.0868 4.59358L12.0857 4.59296Z" fill="white"/>
<path d="M12.8301 0.904773H9.33606V1.8604H12.8301V0.904773Z" fill="white"/>
</svg>
