<svg width="489" height="127" viewBox="0 0 489 127" fill="none" xmlns="http://www.w3.org/2000/svg">
<path d="M51.8898 0C65.9008 0 77.8729 3.62493 87.7604 10.8748C97.6631 3.62493 109.405 0 123.018 0C140.34 0 153.937 5.17628 163.84 15.5442C171.673 23.4852 175.383 32.4707 174.969 42.4853V109.331C174.969 114.508 172.286 118.486 166.936 121.251C161.571 124.015 156.006 124.015 150.243 121.251C144.877 118.486 142.21 114.508 142.21 109.331V42.4853C140.968 35.0665 137.673 30.3971 132.307 28.4925C130.238 27.8013 127.157 27.4634 123.033 27.4634C115.2 27.4634 110.049 29.1991 107.566 32.6397C105.496 35.7423 104.27 39.0294 103.856 42.4853V110.007C103.856 115.183 101.174 119.162 95.8236 121.926C90.4583 124.691 84.8938 124.691 79.1299 121.926C73.7647 119.515 71.0974 115.537 71.0974 110.007V42.4853C69.8557 35.0665 66.5599 30.3971 61.1947 28.4925C59.1252 27.8013 56.044 27.4634 51.9204 27.4634C44.501 27.4634 39.5497 29.1991 37.0816 32.6397C34.6136 36.2646 33.1573 39.5516 32.7588 42.4853V109.331C33.1726 114.508 30.49 118.486 24.7262 121.251C19.3609 124.015 13.7964 124.015 8.03255 121.251C2.66729 118.486 0 114.508 0 109.331V42.4853C1.64024 21.0737 13.1832 7.60313 34.6289 2.07359C39.9329 0.691202 45.712 0 51.8898 0Z" fill="black"/>
<path d="M277.701 122.984C275.058 125.325 271.757 126.363 267.799 126.106C261.855 125.838 257.896 123.63 255.911 119.471C245.674 123.63 234.456 124.155 222.234 121.032C219.267 119.995 216.457 118.824 213.814 117.519C202.919 112.055 195.983 103.87 193.017 92.9415C188.389 75.7794 191.199 61.2155 201.436 49.2499C210.681 39.3697 222.724 34.4296 237.589 34.4296C243.856 34.4296 250.135 35.7343 256.402 38.3326C259.368 39.6373 262.178 41.1986 264.821 43.0163C274.724 50.0417 280.177 59.6655 281.158 71.8875V111.676C281.158 116.873 280.01 120.642 277.701 122.984ZM231.144 56.2754C224.542 57.8366 220.583 61.2155 219.256 66.4121C216.613 74.2182 216.613 82.1469 219.256 90.2094C219.256 91.2465 219.591 92.2947 220.249 93.3318C222.892 98.2719 227.508 101.138 234.11 101.918C238.069 102.175 241.202 102.052 243.522 101.528C250.124 99.454 253.926 94.1124 254.908 85.5369C255.242 73.5714 254.25 65.9103 251.941 62.5202C248.306 57.8366 243.187 55.4948 236.586 55.4948C234.946 55.4948 233.129 55.7624 231.144 56.2754Z" fill="black"/>
<path d="M368.151 40.3399C381.644 48.8708 388.402 61.6615 388.402 78.7122C388.402 97.0229 381.656 109.936 368.151 117.464C360.646 121.478 352.249 123.485 342.96 123.485C332.466 123.485 323.166 120.976 315.07 115.958C303.673 107.94 298.12 95.5175 298.421 78.7122C298.421 60.9032 305.167 48.2463 318.672 40.719C325.876 36.4591 333.972 34.3292 342.971 34.3292C352.55 34.3181 360.958 36.3253 368.151 40.3399ZM342.96 103.915C357.658 103.915 365.006 95.5175 365.006 78.7122C365.006 62.4087 357.658 54.2569 342.96 54.2569C339.057 54.2569 335.31 55.2606 331.708 57.2679C325.106 60.7806 321.805 67.9287 321.805 78.7122V80.2176C321.817 96.0082 328.864 103.915 342.96 103.915Z" fill="black"/>
<path d="M404.873 68.6982C404.873 59.5762 408.018 51.6141 414.319 44.834C421.812 36.4926 432.763 32.3108 447.16 32.3108C468.76 34.1397 482.097 42.6148 487.205 57.7474C488.108 61.1374 488.699 64.7951 489 68.6982V113.304C489 117.475 486.747 120.475 482.253 122.303C480.458 123.084 478.796 123.474 477.302 123.474C472.206 123.474 468.749 121.389 466.954 117.218C466.351 115.914 466.05 114.609 466.05 113.304V68.6982C465.448 59.0521 459.148 53.6994 447.149 52.6623C436.945 52.6623 430.8 56.833 428.704 65.1854C428.403 66.4902 428.258 67.6611 428.258 68.7093V113.315C428.258 117.486 425.86 120.486 421.054 122.315C419.85 123.095 418.355 123.485 416.56 123.485C411.464 123.485 407.862 121.4 405.765 117.229C405.163 115.925 404.862 114.62 404.862 113.315V68.6982H404.873Z" fill="black"/>
</svg>
