<svg width="7" height="12" viewBox="0 0 7 12" fill="none" xmlns="http://www.w3.org/2000/svg">
<path d="M6.83021 0.753906C6.83021 0.668795 6.79859 0.58717 6.7423 0.526987C6.686 0.466804 6.60965 0.432994 6.53004 0.432994H5.02918C4.27343 0.392746 3.53349 0.673929 2.97104 1.21511C2.4086 1.75628 2.06936 2.51346 2.02747 3.3212V5.05412H0.526612C0.447002 5.05412 0.370652 5.08793 0.314359 5.14811C0.258066 5.20829 0.22644 5.28992 0.22644 5.37503V7.04377C0.22644 7.12888 0.258066 7.2105 0.314359 7.27069C0.370652 7.33087 0.447002 7.36468 0.526612 7.36468H2.02747V11.6649C2.02747 11.75 2.05909 11.8316 2.11539 11.8918C2.17168 11.952 2.24803 11.9858 2.32764 11.9858H4.12867C4.20828 11.9858 4.28463 11.952 4.34092 11.8918C4.39722 11.8316 4.42884 11.75 4.42884 11.6649V7.36468H6.00174C6.06849 7.3657 6.13366 7.34291 6.18694 7.2999C6.24021 7.25689 6.27856 7.19612 6.29591 7.1272L6.72816 5.45847C6.7401 5.41105 6.7417 5.36133 6.73285 5.31315C6.72399 5.26497 6.70491 5.2196 6.67707 5.18054C6.64924 5.14148 6.61339 5.10977 6.57229 5.08785C6.53118 5.06593 6.48592 5.05439 6.43999 5.05412H4.42884V3.3212C4.44377 3.16233 4.51356 3.01512 4.62457 2.90831C4.73558 2.8015 4.87984 2.74276 5.02918 2.74356H6.53004C6.60965 2.74356 6.686 2.70975 6.7423 2.64956C6.79859 2.58938 6.83021 2.50776 6.83021 2.42264V0.753906Z" fill="white"/>
</svg>
