<svg width="14" height="14" viewBox="0 0 14 14" fill="none" xmlns="http://www.w3.org/2000/svg">
<path fill-rule="evenodd" clip-rule="evenodd" d="M7.20753 0.604004C5.41395 0.604004 5.18942 0.611488 4.48502 0.643627C3.78194 0.675765 3.30162 0.787589 2.88162 0.950922C2.44137 1.11646 2.04206 1.37621 1.71187 1.71256C1.37606 2.04236 1.11615 2.44139 0.950238 2.88187C0.787785 3.30187 0.675521 3.78262 0.643382 4.4857C0.611684 5.18966 0.60376 5.41375 0.60376 7.20778C0.60376 9.0018 0.611244 9.22589 0.643382 9.93029C0.675521 10.6334 0.787345 11.1137 0.950678 11.5337C1.11621 11.9739 1.37596 12.3733 1.71231 12.7034C2.04213 13.0392 2.44115 13.2991 2.88162 13.4651C3.30162 13.628 3.78194 13.7398 4.48502 13.7719C5.18942 13.8041 5.41395 13.8116 7.20753 13.8116C9.00112 13.8116 9.22565 13.8041 9.93005 13.7719C10.6331 13.7398 11.1134 13.628 11.5334 13.4646C11.9737 13.2991 12.373 13.0394 12.7032 12.703C13.039 12.3732 13.2989 11.9742 13.4648 11.5337C13.6277 11.1137 13.7395 10.6334 13.7717 9.93029C13.8038 9.22589 13.8113 9.00136 13.8113 7.20778C13.8113 5.41419 13.8038 5.18966 13.7717 4.48526C13.7395 3.78218 13.6277 3.30187 13.4644 2.88187C13.2986 2.4412 13.0387 2.04201 12.7028 1.71212C12.3729 1.3763 11.9739 1.11639 11.5334 0.950482C11.1134 0.788029 10.6327 0.675765 9.92961 0.643627C9.22565 0.611928 9.00156 0.604004 7.20753 0.604004ZM7.20753 1.794C8.97074 1.794 9.17986 1.80061 9.87634 1.83231C10.52 1.8618 10.8695 1.96878 11.1024 2.05992C11.4106 2.17922 11.6307 2.32275 11.8619 2.55344C12.093 2.78457 12.2361 3.0047 12.3554 3.31287C12.4461 3.54577 12.5535 3.89532 12.583 4.53897C12.6147 5.23545 12.6213 5.44457 12.6213 7.20778C12.6213 8.97099 12.6147 9.18011 12.583 9.87658C12.5535 10.5202 12.4465 10.8698 12.3554 11.1027C12.2497 11.3895 12.0811 11.649 11.8619 11.8621C11.6488 12.0814 11.3893 12.25 11.1024 12.3556C10.8695 12.4463 10.52 12.5538 9.87634 12.5832C9.17986 12.6149 8.97118 12.6216 7.20753 12.6216C5.44389 12.6216 5.23521 12.6149 4.53873 12.5832C3.89508 12.5538 3.54552 12.4468 3.31263 12.3556C3.02578 12.2499 2.76628 12.0813 2.55319 11.8621C2.33403 11.649 2.16539 11.3895 2.05967 11.1027C1.96898 10.8698 1.86156 10.5202 1.83206 9.87658C1.80036 9.18011 1.79376 8.97099 1.79376 7.20778C1.79376 5.44457 1.80036 5.23545 1.83206 4.53897C1.86156 3.89532 1.96854 3.54577 2.05967 3.31287C2.17898 3.0047 2.3225 2.78457 2.55319 2.55344C2.76625 2.33421 3.02576 2.16557 3.31263 2.05992C3.54552 1.96922 3.89508 1.8618 4.53873 1.83231C5.23521 1.80061 5.44433 1.794 7.20753 1.794Z" fill="white"/>
<path fill-rule="evenodd" clip-rule="evenodd" d="M7.20755 9.41108C6.91819 9.41108 6.63166 9.35409 6.36432 9.24335C6.09699 9.13262 5.85408 8.97031 5.64947 8.7657C5.44486 8.56109 5.28255 8.31819 5.17182 8.05085C5.06109 7.78351 5.00409 7.49698 5.00409 7.20762C5.00409 6.91826 5.06109 6.63173 5.17182 6.3644C5.28255 6.09706 5.44486 5.85415 5.64947 5.64954C5.85408 5.44493 6.09699 5.28263 6.36432 5.17189C6.63166 5.06116 6.91819 5.00416 7.20755 5.00416C7.79194 5.00416 8.3524 5.23631 8.76563 5.64954C9.17886 6.06277 9.41101 6.62323 9.41101 7.20762C9.41101 7.79202 9.17886 8.35247 8.76563 8.7657C8.3524 9.17893 7.79194 9.41108 7.20755 9.41108ZM7.20755 3.81328C6.30732 3.81328 5.44395 4.1709 4.80739 4.80746C4.17083 5.44402 3.81321 6.30739 3.81321 7.20762C3.81321 8.10786 4.17083 8.97122 4.80739 9.60778C5.44395 10.2443 6.30732 10.602 7.20755 10.602C8.10778 10.602 8.97115 10.2443 9.60771 9.60778C10.2443 8.97122 10.6019 8.10786 10.6019 7.20762C10.6019 6.30739 10.2443 5.44402 9.60771 4.80746C8.97115 4.1709 8.10778 3.81328 7.20755 3.81328ZM11.5894 3.75165C11.5894 3.96445 11.5048 4.16853 11.3544 4.319C11.2039 4.46947 10.9998 4.55401 10.787 4.55401C10.5742 4.55401 10.3701 4.46947 10.2197 4.319C10.0692 4.16853 9.98466 3.96445 9.98466 3.75165C9.98466 3.53885 10.0692 3.33477 10.2197 3.18429C10.3701 3.03382 10.5742 2.94929 10.787 2.94929C10.9998 2.94929 11.2039 3.03382 11.3544 3.18429C11.5048 3.33477 11.5894 3.53885 11.5894 3.75165Z" fill="white"/>
</svg>
