<?xml version="1.0" encoding="UTF-8"?><svg id="_лой_1" xmlns="http://www.w3.org/2000/svg" xmlns:xlink="http://www.w3.org/1999/xlink" viewBox="0 0 2007 1391"><defs><style>.cls-1{stroke:url(#_езымянный_градиент_3);}.cls-1,.cls-2{fill:none;stroke-width:9px;}.cls-3{fill:url(#_езымянный_градиент_2);}.cls-2{stroke:url(#_езымянный_градиент_3-2);}</style><linearGradient id="_езымянный_градиент_3" x1="475.88" y1="213.78" x2="1473.45" y2="1590.43" gradientTransform="translate(-26.22 1496.94) rotate(1.9) scale(1 -.96)" gradientUnits="userSpaceOnUse"><stop offset="0" stop-color="#08bdff"/><stop offset="1" stop-color="#fbc28d"/></linearGradient><linearGradient id="_езымянный_градиент_3-2" x1="378.05" y1="230.17" x2="1408.84" y2="1652.68" gradientTransform="translate(-26.11 1493.74) rotate(1.9) scale(1 -.96)" xlink:href="#_езымянный_градиент_3"/><linearGradient id="_езымянный_градиент_2" x1="889.72" y1="667.45" x2="1475.75" y2="1476.17" gradientTransform="translate(0 1578) scale(1 -1)" gradientUnits="userSpaceOnUse"><stop offset="0" stop-color="#03bcff"/><stop offset="1" stop-color="#ffa654"/></linearGradient></defs><path class="cls-1" d="M1063.34,173.34c-136.39,11.57-501.53-165.29-764.36,140.06C-290.38,998.06,661.23,1920.11,1655.96,975.66c596.07-565.94,284.52-666.05-97.58-839.05-382.11-173-358.65,25.17-495.04,36.74Z"/><path class="cls-2" d="M986.32,116.59c-140.96,11.91-518.33-170.46-789.95,144.35C-412.66,966.83,570.89,1917.59,1598.85,943.88c615.98-583.48,293.99-686.72-100.92-865.12-394.91-178.4-370.65,25.92-511.62,37.84Z"/><path class="cls-3" d="M1115.79,210.48c-128.81,15.65-480.19-144.51-719.5,160.89C-140.32,1056.17,789.95,1921.98,1702.3,971.48c546.7-569.57,248.5-656.85-118.83-812.72-367.33-155.87-338.87,36.07-467.68,51.72Z"/></svg>