<svg width="13" height="13" viewBox="0 0 13 13" fill="none" xmlns="http://www.w3.org/2000/svg">
<path d="M8.66864 4.07097C8.17656 4.06928 7.68897 4.16463 7.23378 4.35158C6.77859 4.53853 6.36473 4.8134 6.01588 5.16047C5.66703 5.50753 5.39004 5.91997 5.20075 6.3742C5.01146 6.82843 4.9136 7.31552 4.91276 7.80761V11.5828C4.91276 11.736 4.97364 11.883 5.082 11.9914C5.19037 12.0997 5.33734 12.1606 5.49059 12.1606H6.83885C6.9921 12.1606 7.13908 12.0997 7.24744 11.9914C7.3558 11.883 7.41668 11.736 7.41668 11.5828V7.80761C7.41655 7.63259 7.45331 7.45951 7.52456 7.29965C7.59581 7.13979 7.69995 6.99674 7.83019 6.87983C7.96043 6.76292 8.11385 6.67476 8.28044 6.62112C8.44703 6.56747 8.62306 6.54954 8.79705 6.56848C9.10908 6.60778 9.39584 6.76023 9.60294 6.99692C9.81003 7.2336 9.92307 7.53806 9.9206 7.85255V11.5828C9.9206 11.736 9.98148 11.883 10.0898 11.9914C10.1982 12.0997 10.3452 12.1606 10.4984 12.1606H11.8467C11.9999 12.1606 12.1469 12.0997 12.2553 11.9914C12.3636 11.883 12.4245 11.736 12.4245 11.5828V7.80761C12.4237 7.31552 12.3258 6.82843 12.1365 6.3742C11.9472 5.91997 11.6703 5.50753 11.3214 5.16047C10.9726 4.8134 10.5587 4.53853 10.1035 4.35158C9.64831 4.16463 9.16072 4.06928 8.66864 4.07097Z" fill="white"/>
<path d="M3.17924 4.64871H1.44576C1.12664 4.64871 0.867933 4.90742 0.867933 5.22654V11.5827C0.867933 11.9018 1.12664 12.1605 1.44576 12.1605H3.17924C3.49837 12.1605 3.75707 11.9018 3.75707 11.5827V5.22654C3.75707 4.90742 3.49837 4.64871 3.17924 4.64871Z" fill="white"/>
<path d="M2.31249 3.49316C3.1103 3.49316 3.75706 2.8464 3.75706 2.04858C3.75706 1.25076 3.1103 0.604004 2.31249 0.604004C1.51468 0.604004 0.86792 1.25076 0.86792 2.04858C0.86792 2.8464 1.51468 3.49316 2.31249 3.49316Z" fill="white"/>
</svg>
