<svg width="95" height="95" viewBox="0 0 95 95" fill="none" xmlns="http://www.w3.org/2000/svg">
<path d="M47.5 95C21.3624 95 0 73.6376 0 47.5C0 21.3625 21.3624 0 47.5 0C73.6375 0 95 21.3625 95 47.5C94.7487 73.6376 73.6375 95 47.5 95ZM47.5 6.0318C24.6296 6.0318 6.03173 24.6297 6.03173 47.5C6.03173 70.3704 24.6296 88.9683 47.5 88.9683C70.3703 88.9683 88.9682 70.3704 88.9682 47.5C88.9682 24.6297 70.3703 6.0318 47.5 6.0318Z" fill="#24256B"/>
<path d="M79.7501 44.9539H74H67.75H55.75C54.5 41.4 51.25 38.8616 47.5 38.8616C43.75 38.8616 40.5 41.4 39.25 44.9539H27.2501C28.7501 34.8 37.25 26.9308 47.75 26.9308C56 26.9308 63 31.7539 66.25 38.8616H78.75C75 25.1539 62.5 15 47.5 15C29.75 15 15 29.7231 15 48C15 49.0154 15 50.0308 15.25 51.0462H21.0001H27.2501H39.25C40.5 54.6 43.75 57.1385 47.5 57.1385C51.25 57.1385 54.5 54.6 55.75 51.0462H67.75C66.25 61.2 57.7501 69.0693 47.2501 69.0693C39.0001 69.0693 32 64.2462 28.75 57.1385H16.25C20 70.8462 32.5 81 47.5 81C65.25 81 80 66.2769 80 48C79.75 46.7308 79.7501 45.7154 79.7501 44.9539Z" fill="#24256B"/>
</svg>
