<svg width="58" height="43" viewBox="0 0 58 43" fill="none" xmlns="http://www.w3.org/2000/svg">
<g clip-path="url(#clip0_43_271)">
<path d="M57.8113 36.1709H57.8103C57.8113 36.187 57.8113 36.2022 57.8113 36.2184C57.8113 40.125 54.6495 43.2911 50.7496 43.2911C46.8497 43.2911 43.6879 40.125 43.6879 36.2184C43.6879 36.2022 43.6879 36.187 43.6888 36.1709C43.6888 36.0617 43.6917 35.9535 43.6983 35.8452C43.6945 35.8452 43.6917 35.8453 43.6879 35.8471V18.1329C43.6879 15.9304 41.9592 14.1456 39.8275 14.1456C37.6958 14.1456 35.9671 15.9304 35.9671 18.1329V35.8471C35.9671 35.8471 35.9605 35.8452 35.9568 35.8452C35.9643 35.9687 35.9671 36.093 35.9671 36.2184C35.9671 36.2345 35.9671 36.2497 35.9662 36.2658C35.9417 40.1506 32.7894 43.2911 28.9054 43.2911C25.0215 43.2911 21.8692 40.1506 21.8447 36.2658C21.8438 36.2497 21.8438 36.2345 21.8438 36.2184V18.1329C21.8438 8.11804 29.895 0 39.8275 0C49.76 0 57.8113 8.11804 57.8113 18.1329V36.1709Z" fill="#EAAA31"/>
<path d="M35.9675 36.1709H35.9666C35.9675 36.187 35.9675 36.2022 35.9675 36.2184C35.9675 40.125 32.8058 43.2911 28.9058 43.2911C25.0059 43.2911 21.8442 40.125 21.8442 36.2184C21.8442 36.2022 21.8442 36.187 21.8451 36.1709C21.8451 36.0617 21.8479 35.9535 21.8545 35.8452C21.8507 35.8452 21.8479 35.8453 21.8442 35.8471V18.1329C21.8442 15.9304 20.1155 14.1456 17.9838 14.1456C15.8521 14.1456 14.1234 15.9304 14.1234 18.1329V35.8471C14.1234 35.8471 14.1168 35.8452 14.113 35.8452C14.1206 35.9687 14.1234 36.093 14.1234 36.2184C14.1234 36.2345 14.1234 36.2497 14.1224 36.2658C14.098 40.1506 10.9456 43.2911 7.06169 43.2911C3.17776 43.2911 0.025423 40.1506 0.000942478 36.2658C9.19512e-07 36.2497 0 36.2345 0 36.2184V18.1329C0 8.11804 8.05127 0 17.9838 0C27.9163 0 35.9675 8.11804 35.9675 18.1329V36.1709Z" fill="#03BCFF"/>
</g>
<defs>
<clipPath id="clip0_43_271">
<rect width="58" height="43" fill="white"/>
</clipPath>
</defs>
</svg>
