<svg width="49" height="49" viewBox="0 0 49 49" fill="none" xmlns="http://www.w3.org/2000/svg">
<path d="M32.3969 8.97944L32.3969 16.5113L32.3969 47.806C32.3969 48.2172 32.3969 48.4229 32.2649 48.4935C32.1328 48.5642 31.9617 48.4501 31.6196 48.222L24.617 43.5536C24.4826 43.464 24.4154 43.4192 24.3397 43.4192C24.264 43.4192 24.1968 43.464 24.0623 43.5536L16.5598 48.5553C16.4254 48.645 16.3581 48.6898 16.2824 48.6898C16.2067 48.6898 16.1395 48.645 16.0051 48.5553L8.50255 43.5536C8.36812 43.464 8.3009 43.4192 8.2252 43.4192C8.14951 43.4192 8.08229 43.464 7.94786 43.5536L7.94785 43.5536L0.945318 48.222C0.603133 48.4501 0.43204 48.5642 0.300004 48.4935C0.167969 48.4229 0.167969 48.2172 0.167969 47.806L0.167967 4.39686C0.167967 2.51124 0.167967 1.56843 0.753753 0.982643C1.33954 0.396858 2.28235 0.396858 4.16797 0.396858L40.4541 0.39686L35.0687 3.98713C33.7608 4.85906 33.1069 5.29503 32.7519 5.9583C32.3969 6.62158 32.3969 7.40754 32.3969 8.97944Z" fill="white"/>
<path d="M32.3965 3.39746C32.3965 1.74061 33.7396 0.397461 35.3965 0.397461H45.511C47.1678 0.397461 48.511 1.74061 48.511 3.39746V15.5119C48.511 16.0642 48.0632 16.5119 47.511 16.5119H32.8965C32.6203 16.5119 32.3965 16.2881 32.3965 16.0119V3.39746Z" fill="#A5E7FF"/>
<path d="M6.88354 17.8542L25.6838 17.8542" stroke="#03BCFF" stroke-linecap="round"/>
<path d="M6.88354 25.9106L17.6265 25.9106" stroke="#03BCFF" stroke-linecap="round"/>
<path d="M6.88354 33.9688L22.998 33.9688" stroke="#03BCFF" stroke-linecap="round"/>
</svg>
