<svg width="41" height="41" viewBox="0 0 41 41" fill="none" xmlns="http://www.w3.org/2000/svg">
<path d="M23.7034 5.44434L3.39112 25.7566C3.17859 25.9692 3.07232 26.0754 3.00246 26.206C2.93259 26.3365 2.90312 26.4839 2.84417 26.7786L0.147087 40.264C0.080565 40.5967 0.047304 40.763 0.141912 40.8576C0.236517 40.9522 0.402814 40.9189 0.735402 40.8524L0.735436 40.8524L14.2209 38.1553C14.5156 38.0964 14.6629 38.0669 14.7935 37.997C14.924 37.9272 15.0303 37.8209 15.2428 37.6084L15.2428 37.6084L35.5551 17.2961L23.7034 5.44434Z" fill="white"/>
<path d="M29.2723 1.98995L4.41824 26.844L4.41182 26.8504L4.41181 26.8504C4.40001 26.8622 4.38822 26.8739 4.37647 26.8857C4.21685 27.0448 4.06341 27.1978 3.95502 27.3893C3.84662 27.5807 3.79436 27.791 3.74 28.0098C3.73599 28.0259 3.73198 28.0421 3.72793 28.0583L1.10147 38.5641L1.09417 38.5933C1.05556 38.7473 1.01188 38.9216 0.99738 39.0699C0.981227 39.235 0.982709 39.5342 1.224 39.7755C1.46528 40.0168 1.76451 40.0183 1.92964 40.0021C2.07789 39.9876 2.25213 39.944 2.40619 39.9054L2.43542 39.898L12.9413 37.2716C12.9575 37.2675 12.9736 37.2635 12.9897 37.2595C13.2085 37.2052 13.4188 37.1529 13.6102 37.0445C13.8017 36.9361 13.9547 36.7827 14.1139 36.623C14.1256 36.6113 14.1373 36.5995 14.1491 36.5877L13.7249 36.1634L14.1491 36.5877L39.0096 11.7273L39.0363 11.7005C39.3467 11.3902 39.621 11.116 39.8123 10.8652C40.0197 10.5934 40.1853 10.2798 40.1853 9.88879C40.1853 9.49775 40.0197 9.18422 39.8123 8.9124C39.621 8.66165 39.3468 8.38745 39.0364 8.07718L39.0096 8.05031L32.9492 1.98995L32.9224 1.9631C32.6121 1.65278 32.3379 1.37852 32.0871 1.1872C31.8153 0.979813 31.5018 0.814214 31.1107 0.814214C30.7197 0.814214 30.4062 0.979813 30.1343 1.1872C29.8836 1.37854 29.6093 1.65281 29.299 1.96315L29.2723 1.98995L29.6965 2.41421L29.2723 1.98995Z" stroke="white" stroke-width="1.2"/>
<path d="M23.7039 5.44434L35.5556 17.2961" stroke="#03BCFF" stroke-width="1.2"/>
</svg>
