<svg width="17" height="16" viewBox="0 0 17 16" fill="none" xmlns="http://www.w3.org/2000/svg">
<path d="M16.978 5.78721C16.9253 5.62591 16.787 5.51069 16.6191 5.48436L11.6154 4.7733L9.36372 0.246895C9.288 0.0954657 9.13328 0 8.96539 0C8.79751 0 8.64279 0.0954656 8.56707 0.250187L6.34502 4.78976L1.34128 5.53374C1.1734 5.56007 1.03514 5.67529 0.982465 5.83659C0.929794 5.9979 0.975881 6.17566 1.09768 6.29088L4.72868 9.80995L3.88924 14.7939C3.85961 14.9618 3.92874 15.1297 4.067 15.2285C4.14272 15.2844 4.23489 15.3141 4.32707 15.3141C4.39949 15.3141 4.46862 15.2976 4.53446 15.2614L9.00161 12.8945L13.4819 15.2351C13.5478 15.268 13.6169 15.2844 13.686 15.2844C13.9296 15.2844 14.1304 15.0836 14.1304 14.84C14.1304 14.8038 14.1271 14.7709 14.1173 14.738L13.2515 9.78362L16.8594 6.24479C16.9878 6.12628 17.0306 5.94852 16.978 5.78721Z" fill="#EAAA31"/>
</svg>
