<svg width="15" height="12" viewBox="0 0 15 12" fill="none" xmlns="http://www.w3.org/2000/svg">
<path fill-rule="evenodd" clip-rule="evenodd" d="M12.824 0.509975C13.5835 0.201703 14.3978 0.820797 14.2637 1.60461L12.6796 10.8626C12.5269 11.7552 11.5098 12.2674 10.6603 11.8226C9.94936 11.4504 8.8946 10.8775 7.94401 10.2787C7.46935 9.97972 6.01589 9.02099 6.19454 8.33852C6.34729 7.75498 8.79072 5.56248 10.187 4.25858C10.7355 3.7464 10.4857 3.45051 9.83793 3.92209C8.23109 5.09193 5.65133 6.87055 4.79823 7.37111C4.04554 7.81272 3.65255 7.8881 3.18378 7.81272C2.32777 7.67523 1.53414 7.4623 0.88621 7.20341C0.0104824 6.85346 0.0531389 5.69337 0.885617 5.35554L12.824 0.509975Z" fill="white"/>
</svg>
